<mxfile host="app.diagrams.net" modified="2022-12-11T19:28:56.741Z" agent="5.0 (Windows NT 10.0; Win64; x64) AppleWebKit/537.36 (KHTML, like Gecko) Chrome/108.0.0.0 Safari/537.36" etag="OqiSuVPeBU1g-ZH6CFg5" version="20.6.2" type="github">
  <diagram id="C5RBs43oDa-KdzZeNtuy" name="Page-1">
    <mxGraphModel dx="1695" dy="1619" grid="1" gridSize="10" guides="1" tooltips="1" connect="1" arrows="1" fold="1" page="1" pageScale="1" pageWidth="827" pageHeight="1169" math="0" shadow="0">
      <root>
        <mxCell id="WIyWlLk6GJQsqaUBKTNV-0" />
        <mxCell id="WIyWlLk6GJQsqaUBKTNV-1" parent="WIyWlLk6GJQsqaUBKTNV-0" />
        <mxCell id="ARDjYJkYAR_hBjI4PZDU-5" value="" style="edgeStyle=orthogonalEdgeStyle;rounded=0;orthogonalLoop=1;jettySize=auto;html=1;" edge="1" parent="WIyWlLk6GJQsqaUBKTNV-1" source="ARDjYJkYAR_hBjI4PZDU-0" target="ARDjYJkYAR_hBjI4PZDU-4">
          <mxGeometry relative="1" as="geometry" />
        </mxCell>
        <mxCell id="ARDjYJkYAR_hBjI4PZDU-0" value="START" style="ellipse;whiteSpace=wrap;html=1;" vertex="1" parent="WIyWlLk6GJQsqaUBKTNV-1">
          <mxGeometry x="170" y="60" width="120" height="80" as="geometry" />
        </mxCell>
        <mxCell id="ARDjYJkYAR_hBjI4PZDU-3" value="" style="endArrow=classic;html=1;rounded=0;" edge="1" parent="WIyWlLk6GJQsqaUBKTNV-1">
          <mxGeometry width="50" height="50" relative="1" as="geometry">
            <mxPoint x="229.5" y="140" as="sourcePoint" />
            <mxPoint x="230" y="200" as="targetPoint" />
          </mxGeometry>
        </mxCell>
        <mxCell id="ARDjYJkYAR_hBjI4PZDU-4" value="INPUT F" style="shape=parallelogram;perimeter=parallelogramPerimeter;whiteSpace=wrap;html=1;fixedSize=1;" vertex="1" parent="WIyWlLk6GJQsqaUBKTNV-1">
          <mxGeometry x="170" y="200" width="120" height="60" as="geometry" />
        </mxCell>
        <mxCell id="ARDjYJkYAR_hBjI4PZDU-6" value="" style="endArrow=classic;html=1;rounded=0;" edge="1" parent="WIyWlLk6GJQsqaUBKTNV-1">
          <mxGeometry width="50" height="50" relative="1" as="geometry">
            <mxPoint x="220" y="260" as="sourcePoint" />
            <mxPoint x="220.5" y="320" as="targetPoint" />
          </mxGeometry>
        </mxCell>
        <mxCell id="ARDjYJkYAR_hBjI4PZDU-7" value="C=(F-32)*5/9" style="rounded=0;whiteSpace=wrap;html=1;" vertex="1" parent="WIyWlLk6GJQsqaUBKTNV-1">
          <mxGeometry x="160" y="320" width="120" height="60" as="geometry" />
        </mxCell>
        <mxCell id="ARDjYJkYAR_hBjI4PZDU-8" value="" style="endArrow=classic;html=1;rounded=0;" edge="1" parent="WIyWlLk6GJQsqaUBKTNV-1">
          <mxGeometry width="50" height="50" relative="1" as="geometry">
            <mxPoint x="219.5" y="380" as="sourcePoint" />
            <mxPoint x="220" y="440" as="targetPoint" />
          </mxGeometry>
        </mxCell>
        <mxCell id="ARDjYJkYAR_hBjI4PZDU-9" value="PRINT C" style="shape=parallelogram;perimeter=parallelogramPerimeter;whiteSpace=wrap;html=1;fixedSize=1;" vertex="1" parent="WIyWlLk6GJQsqaUBKTNV-1">
          <mxGeometry x="160" y="440" width="140" height="60" as="geometry" />
        </mxCell>
        <mxCell id="ARDjYJkYAR_hBjI4PZDU-10" value="" style="endArrow=classic;html=1;rounded=0;" edge="1" parent="WIyWlLk6GJQsqaUBKTNV-1">
          <mxGeometry width="50" height="50" relative="1" as="geometry">
            <mxPoint x="219.5" y="510" as="sourcePoint" />
            <mxPoint x="220" y="570" as="targetPoint" />
            <Array as="points">
              <mxPoint x="220" y="500" />
              <mxPoint x="220" y="550" />
            </Array>
          </mxGeometry>
        </mxCell>
        <mxCell id="ARDjYJkYAR_hBjI4PZDU-11" value="STOP" style="ellipse;whiteSpace=wrap;html=1;" vertex="1" parent="WIyWlLk6GJQsqaUBKTNV-1">
          <mxGeometry x="160" y="570" width="120" height="80" as="geometry" />
        </mxCell>
        <mxCell id="ARDjYJkYAR_hBjI4PZDU-12" value="START" style="ellipse;whiteSpace=wrap;html=1;" vertex="1" parent="WIyWlLk6GJQsqaUBKTNV-1">
          <mxGeometry x="160" y="770" width="120" height="80" as="geometry" />
        </mxCell>
        <mxCell id="ARDjYJkYAR_hBjI4PZDU-13" value="" style="endArrow=classic;html=1;rounded=0;" edge="1" parent="WIyWlLk6GJQsqaUBKTNV-1">
          <mxGeometry width="50" height="50" relative="1" as="geometry">
            <mxPoint x="219.5" y="850" as="sourcePoint" />
            <mxPoint x="219.5" y="920" as="targetPoint" />
          </mxGeometry>
        </mxCell>
        <mxCell id="ARDjYJkYAR_hBjI4PZDU-14" value="INPUT&amp;nbsp; X,Y,Z" style="shape=parallelogram;perimeter=parallelogramPerimeter;whiteSpace=wrap;html=1;fixedSize=1;" vertex="1" parent="WIyWlLk6GJQsqaUBKTNV-1">
          <mxGeometry x="142.5" y="920" width="155" height="40" as="geometry" />
        </mxCell>
        <mxCell id="ARDjYJkYAR_hBjI4PZDU-15" value="" style="endArrow=classic;html=1;rounded=0;" edge="1" parent="WIyWlLk6GJQsqaUBKTNV-1">
          <mxGeometry width="50" height="50" relative="1" as="geometry">
            <mxPoint x="219.5" y="960" as="sourcePoint" />
            <mxPoint x="219.5" y="1030" as="targetPoint" />
          </mxGeometry>
        </mxCell>
        <mxCell id="ARDjYJkYAR_hBjI4PZDU-16" value="IS X&amp;gt;=Y" style="rhombus;whiteSpace=wrap;html=1;" vertex="1" parent="WIyWlLk6GJQsqaUBKTNV-1">
          <mxGeometry x="170" y="1030" width="100" height="80" as="geometry" />
        </mxCell>
        <mxCell id="ARDjYJkYAR_hBjI4PZDU-19" value="NO" style="endArrow=none;html=1;rounded=0;" edge="1" parent="WIyWlLk6GJQsqaUBKTNV-1">
          <mxGeometry width="50" height="50" relative="1" as="geometry">
            <mxPoint x="270" y="1070" as="sourcePoint" />
            <mxPoint x="360" y="1070" as="targetPoint" />
          </mxGeometry>
        </mxCell>
        <mxCell id="ARDjYJkYAR_hBjI4PZDU-21" value="" style="endArrow=classic;html=1;rounded=0;" edge="1" parent="WIyWlLk6GJQsqaUBKTNV-1">
          <mxGeometry width="50" height="50" relative="1" as="geometry">
            <mxPoint x="360" y="1070" as="sourcePoint" />
            <mxPoint x="360" y="1170" as="targetPoint" />
          </mxGeometry>
        </mxCell>
        <mxCell id="ARDjYJkYAR_hBjI4PZDU-24" value="YES" style="endArrow=none;html=1;rounded=0;" edge="1" parent="WIyWlLk6GJQsqaUBKTNV-1">
          <mxGeometry width="50" height="50" relative="1" as="geometry">
            <mxPoint x="80" y="1069.5" as="sourcePoint" />
            <mxPoint x="170" y="1069.5" as="targetPoint" />
          </mxGeometry>
        </mxCell>
        <mxCell id="ARDjYJkYAR_hBjI4PZDU-25" value="" style="endArrow=classic;html=1;rounded=0;" edge="1" parent="WIyWlLk6GJQsqaUBKTNV-1">
          <mxGeometry width="50" height="50" relative="1" as="geometry">
            <mxPoint x="80" y="1069" as="sourcePoint" />
            <mxPoint x="80" y="1169" as="targetPoint" />
          </mxGeometry>
        </mxCell>
        <mxCell id="ARDjYJkYAR_hBjI4PZDU-26" value="IS X&amp;gt;=Z" style="rhombus;whiteSpace=wrap;html=1;" vertex="1" parent="WIyWlLk6GJQsqaUBKTNV-1">
          <mxGeometry x="40" y="1169" width="80" height="80" as="geometry" />
        </mxCell>
        <mxCell id="ARDjYJkYAR_hBjI4PZDU-27" value="" style="endArrow=classic;html=1;rounded=0;" edge="1" parent="WIyWlLk6GJQsqaUBKTNV-1">
          <mxGeometry width="50" height="50" relative="1" as="geometry">
            <mxPoint x="120" y="1210" as="sourcePoint" />
            <mxPoint x="220" y="1210" as="targetPoint" />
          </mxGeometry>
        </mxCell>
        <mxCell id="ARDjYJkYAR_hBjI4PZDU-28" value="" style="endArrow=classic;html=1;rounded=0;" edge="1" parent="WIyWlLk6GJQsqaUBKTNV-1">
          <mxGeometry width="50" height="50" relative="1" as="geometry">
            <mxPoint x="320" y="1210" as="sourcePoint" />
            <mxPoint x="220" y="1210" as="targetPoint" />
          </mxGeometry>
        </mxCell>
        <mxCell id="ARDjYJkYAR_hBjI4PZDU-29" value="" style="endArrow=classic;html=1;rounded=0;" edge="1" parent="WIyWlLk6GJQsqaUBKTNV-1">
          <mxGeometry width="50" height="50" relative="1" as="geometry">
            <mxPoint x="219.5" y="1210" as="sourcePoint" />
            <mxPoint x="220" y="1330" as="targetPoint" />
          </mxGeometry>
        </mxCell>
        <mxCell id="ARDjYJkYAR_hBjI4PZDU-30" value="" style="endArrow=classic;html=1;rounded=0;" edge="1" parent="WIyWlLk6GJQsqaUBKTNV-1">
          <mxGeometry width="50" height="50" relative="1" as="geometry">
            <mxPoint x="79.5" y="1249" as="sourcePoint" />
            <mxPoint x="79.5" y="1329" as="targetPoint" />
          </mxGeometry>
        </mxCell>
        <mxCell id="ARDjYJkYAR_hBjI4PZDU-31" value="" style="endArrow=classic;html=1;rounded=0;" edge="1" parent="WIyWlLk6GJQsqaUBKTNV-1">
          <mxGeometry width="50" height="50" relative="1" as="geometry">
            <mxPoint x="359.5" y="1249" as="sourcePoint" />
            <mxPoint x="359.5" y="1329" as="targetPoint" />
          </mxGeometry>
        </mxCell>
        <mxCell id="ARDjYJkYAR_hBjI4PZDU-32" value="&amp;nbsp;PRINT IF X IS THE LARGEST" style="shape=parallelogram;perimeter=parallelogramPerimeter;whiteSpace=wrap;html=1;fixedSize=1;" vertex="1" parent="WIyWlLk6GJQsqaUBKTNV-1">
          <mxGeometry x="-10" y="1330" width="140" height="40" as="geometry" />
        </mxCell>
        <mxCell id="ARDjYJkYAR_hBjI4PZDU-33" value="IS Y&amp;gt;=Z" style="rhombus;whiteSpace=wrap;html=1;" vertex="1" parent="WIyWlLk6GJQsqaUBKTNV-1">
          <mxGeometry x="320" y="1169" width="80" height="80" as="geometry" />
        </mxCell>
        <mxCell id="ARDjYJkYAR_hBjI4PZDU-34" value="PRINT IF Z IS THE LARGEST" style="shape=parallelogram;perimeter=parallelogramPerimeter;whiteSpace=wrap;html=1;fixedSize=1;" vertex="1" parent="WIyWlLk6GJQsqaUBKTNV-1">
          <mxGeometry x="150" y="1330" width="140" height="40" as="geometry" />
        </mxCell>
        <mxCell id="ARDjYJkYAR_hBjI4PZDU-35" value="PRINT IF Y IS THE LARGEST" style="shape=parallelogram;perimeter=parallelogramPerimeter;whiteSpace=wrap;html=1;fixedSize=1;" vertex="1" parent="WIyWlLk6GJQsqaUBKTNV-1">
          <mxGeometry x="310" y="1330" width="130" height="40" as="geometry" />
        </mxCell>
        <mxCell id="ARDjYJkYAR_hBjI4PZDU-36" value="" style="endArrow=none;html=1;rounded=0;" edge="1" parent="WIyWlLk6GJQsqaUBKTNV-1">
          <mxGeometry width="50" height="50" relative="1" as="geometry">
            <mxPoint x="70" y="1450" as="sourcePoint" />
            <mxPoint x="70" y="1370" as="targetPoint" />
          </mxGeometry>
        </mxCell>
        <mxCell id="ARDjYJkYAR_hBjI4PZDU-39" value="" style="endArrow=none;html=1;rounded=0;" edge="1" parent="WIyWlLk6GJQsqaUBKTNV-1">
          <mxGeometry width="50" height="50" relative="1" as="geometry">
            <mxPoint x="359.5" y="1450" as="sourcePoint" />
            <mxPoint x="359.5" y="1370" as="targetPoint" />
          </mxGeometry>
        </mxCell>
        <mxCell id="ARDjYJkYAR_hBjI4PZDU-40" value="" style="endArrow=classic;html=1;rounded=0;" edge="1" parent="WIyWlLk6GJQsqaUBKTNV-1">
          <mxGeometry width="50" height="50" relative="1" as="geometry">
            <mxPoint x="70" y="1450" as="sourcePoint" />
            <mxPoint x="220" y="1450" as="targetPoint" />
          </mxGeometry>
        </mxCell>
        <mxCell id="ARDjYJkYAR_hBjI4PZDU-41" value="" style="endArrow=classic;html=1;rounded=0;" edge="1" parent="WIyWlLk6GJQsqaUBKTNV-1">
          <mxGeometry width="50" height="50" relative="1" as="geometry">
            <mxPoint x="219.5" y="1370" as="sourcePoint" />
            <mxPoint x="220" y="1530" as="targetPoint" />
          </mxGeometry>
        </mxCell>
        <mxCell id="ARDjYJkYAR_hBjI4PZDU-42" value="" style="endArrow=classic;html=1;rounded=0;" edge="1" parent="WIyWlLk6GJQsqaUBKTNV-1">
          <mxGeometry width="50" height="50" relative="1" as="geometry">
            <mxPoint x="360" y="1450" as="sourcePoint" />
            <mxPoint x="220" y="1450" as="targetPoint" />
          </mxGeometry>
        </mxCell>
        <mxCell id="ARDjYJkYAR_hBjI4PZDU-43" value="STOP" style="ellipse;whiteSpace=wrap;html=1;" vertex="1" parent="WIyWlLk6GJQsqaUBKTNV-1">
          <mxGeometry x="160" y="1530" width="120" height="80" as="geometry" />
        </mxCell>
        <mxCell id="ARDjYJkYAR_hBjI4PZDU-44" value="QUESTION 1 i)&lt;br&gt;" style="text;html=1;align=center;verticalAlign=middle;resizable=0;points=[];autosize=1;strokeColor=none;fillColor=none;" vertex="1" parent="WIyWlLk6GJQsqaUBKTNV-1">
          <mxGeometry x="160" y="-40" width="110" height="30" as="geometry" />
        </mxCell>
      </root>
    </mxGraphModel>
  </diagram>
</mxfile>
